<mxfile host="Electron" agent="Mozilla/5.0 (Windows NT 10.0; Win64; x64) AppleWebKit/537.36 (KHTML, like Gecko) draw.io/24.7.17 Chrome/128.0.6613.36 Electron/32.0.1 Safari/537.36" version="24.7.17">
  <diagram name="Page-1" id="uZqH-SsdyO1i-V4CADlj">
    <mxGraphModel dx="1098" dy="828" grid="1" gridSize="10" guides="1" tooltips="1" connect="1" arrows="1" fold="1" page="1" pageScale="1" pageWidth="850" pageHeight="1100" math="0" shadow="0">
      <root>
        <mxCell id="0" />
        <mxCell id="1" parent="0" />
        <mxCell id="a8SQT0vI6r6bOsfjmJo9-9" style="edgeStyle=orthogonalEdgeStyle;rounded=0;orthogonalLoop=1;jettySize=auto;html=1;entryX=0.5;entryY=0;entryDx=0;entryDy=0;" edge="1" parent="1" source="a8SQT0vI6r6bOsfjmJo9-1" target="a8SQT0vI6r6bOsfjmJo9-7">
          <mxGeometry relative="1" as="geometry" />
        </mxCell>
        <mxCell id="a8SQT0vI6r6bOsfjmJo9-1" value="START" style="ellipse;whiteSpace=wrap;html=1;" vertex="1" parent="1">
          <mxGeometry x="360" y="390" width="120" height="80" as="geometry" />
        </mxCell>
        <mxCell id="a8SQT0vI6r6bOsfjmJo9-5" value="a&amp;lt;b?" style="rhombus;whiteSpace=wrap;html=1;" vertex="1" parent="1">
          <mxGeometry x="380" y="610" width="80" height="80" as="geometry" />
        </mxCell>
        <mxCell id="a8SQT0vI6r6bOsfjmJo9-10" style="edgeStyle=orthogonalEdgeStyle;rounded=0;orthogonalLoop=1;jettySize=auto;html=1;entryX=0.5;entryY=0;entryDx=0;entryDy=0;" edge="1" parent="1" source="a8SQT0vI6r6bOsfjmJo9-7" target="a8SQT0vI6r6bOsfjmJo9-5">
          <mxGeometry relative="1" as="geometry" />
        </mxCell>
        <mxCell id="a8SQT0vI6r6bOsfjmJo9-7" value="a,b" style="shape=parallelogram;perimeter=parallelogramPerimeter;whiteSpace=wrap;html=1;fixedSize=1;" vertex="1" parent="1">
          <mxGeometry x="360" y="510" width="120" height="60" as="geometry" />
        </mxCell>
        <mxCell id="a8SQT0vI6r6bOsfjmJo9-11" value="a" style="shape=parallelogram;perimeter=parallelogramPerimeter;whiteSpace=wrap;html=1;fixedSize=1;" vertex="1" parent="1">
          <mxGeometry x="220" y="730" width="120" height="60" as="geometry" />
        </mxCell>
        <mxCell id="a8SQT0vI6r6bOsfjmJo9-12" value="b" style="shape=parallelogram;perimeter=parallelogramPerimeter;whiteSpace=wrap;html=1;fixedSize=1;" vertex="1" parent="1">
          <mxGeometry x="490" y="730" width="120" height="60" as="geometry" />
        </mxCell>
        <mxCell id="a8SQT0vI6r6bOsfjmJo9-14" style="edgeStyle=orthogonalEdgeStyle;rounded=0;orthogonalLoop=1;jettySize=auto;html=1;entryX=0.567;entryY=-0.067;entryDx=0;entryDy=0;entryPerimeter=0;" edge="1" parent="1" source="a8SQT0vI6r6bOsfjmJo9-5" target="a8SQT0vI6r6bOsfjmJo9-12">
          <mxGeometry relative="1" as="geometry" />
        </mxCell>
        <mxCell id="a8SQT0vI6r6bOsfjmJo9-15" style="edgeStyle=orthogonalEdgeStyle;rounded=0;orthogonalLoop=1;jettySize=auto;html=1;entryX=0.617;entryY=-0.067;entryDx=0;entryDy=0;entryPerimeter=0;" edge="1" parent="1" source="a8SQT0vI6r6bOsfjmJo9-5" target="a8SQT0vI6r6bOsfjmJo9-11">
          <mxGeometry relative="1" as="geometry" />
        </mxCell>
        <mxCell id="a8SQT0vI6r6bOsfjmJo9-16" value="yes" style="text;html=1;align=center;verticalAlign=middle;resizable=0;points=[];autosize=1;strokeColor=none;fillColor=none;" vertex="1" parent="1">
          <mxGeometry x="300" y="608" width="40" height="30" as="geometry" />
        </mxCell>
        <mxCell id="a8SQT0vI6r6bOsfjmJo9-17" value="no&lt;div&gt;&lt;br&gt;&lt;/div&gt;" style="text;html=1;align=center;verticalAlign=middle;resizable=0;points=[];autosize=1;strokeColor=none;fillColor=none;" vertex="1" parent="1">
          <mxGeometry x="500" y="610" width="40" height="40" as="geometry" />
        </mxCell>
        <mxCell id="a8SQT0vI6r6bOsfjmJo9-18" value="END" style="ellipse;whiteSpace=wrap;html=1;" vertex="1" parent="1">
          <mxGeometry x="365" y="840" width="120" height="80" as="geometry" />
        </mxCell>
        <mxCell id="a8SQT0vI6r6bOsfjmJo9-27" style="edgeStyle=orthogonalEdgeStyle;rounded=0;orthogonalLoop=1;jettySize=auto;html=1;entryX=0.375;entryY=-0.012;entryDx=0;entryDy=0;entryPerimeter=0;" edge="1" parent="1" source="a8SQT0vI6r6bOsfjmJo9-11" target="a8SQT0vI6r6bOsfjmJo9-18">
          <mxGeometry relative="1" as="geometry" />
        </mxCell>
        <mxCell id="a8SQT0vI6r6bOsfjmJo9-28" style="edgeStyle=orthogonalEdgeStyle;rounded=0;orthogonalLoop=1;jettySize=auto;html=1;entryX=0.617;entryY=-0.037;entryDx=0;entryDy=0;entryPerimeter=0;" edge="1" parent="1" source="a8SQT0vI6r6bOsfjmJo9-12" target="a8SQT0vI6r6bOsfjmJo9-18">
          <mxGeometry relative="1" as="geometry" />
        </mxCell>
      </root>
    </mxGraphModel>
  </diagram>
</mxfile>
